<?xml version="1.0" encoding="utf-8"?>
<!-- Generator: Adobe Illustrator 22.1.0, SVG Export Plug-In . SVG Version: 6.00 Build 0)  -->
<svg version="1.2" baseProfile="tiny" xmlns="http://www.w3.org/2000/svg" xmlns:xlink="http://www.w3.org/1999/xlink" x="0px"
	 y="0px" viewBox="0 0 1122 754" xml:space="preserve">
<g id="logo_white">
	<path fill="#FFFFFF" d="M936.5,588c-19.3,0-35,15.7-35,35c0,19.3,15.7,35,35,35s35-15.7,35-35C971.5,603.7,955.8,588,936.5,588z
		 M936.5,642.7c-10.9,0-19.7-8.8-19.7-19.7s8.8-19.7,19.7-19.7s19.7,8.8,19.7,19.7S947.4,642.7,936.5,642.7z"/>
	<path fill="#FFFFFF" d="M971.5,258L971.5,258l0,240h-70V256.5c0-49.7-40.3-90-90-90s-90,40.3-90,90c0,0.5,0,1,0,1.5h0v240h-70V258
		h0c0-0.5,0-1,0-1.5c0-49.7-40.3-90-90-90s-90,40.3-90,90v240c0,0.5,0,1,0,1.5c-0.8,87.7-72.1,158.5-160,158.5
		c-88.4,0-160-71.6-160-160v-390h70v75h120v70h-120v245c0,49.7,40.3,90,90,90s90-40.3,90-90V258h0c0-0.5,0-1,0-1.5
		c0-32.7,9.8-63.2,26.7-88.5c28.7-43.1,77.7-71.5,133.3-71.5c50.6,0,95.7,23.5,125,60.1c29.3-36.6,74.4-60.1,125-60.1
		c55.6,0,104.6,28.4,133.3,71.5c16.9,25.3,26.7,55.8,26.7,88.5C971.5,257,971.5,257.5,971.5,258z"/>
</g>
</svg>
